{
	"asset":{
		"generator":"Khronos glTF Blender I/O v4.5.48",
		"version":"2.0"
	},
	"scene":0,
	"scenes":[
		{
			"name":"Scene",
			"nodes":[
				0
			]
		}
	],
	"nodes":[
		{
			"mesh":0,
			"name":"Slime"
		}
	],
	"materials":[
		{
			"doubleSided":true,
			"name":"Ojos",
			"pbrMetallicRoughness":{
				"baseColorFactor":[
					0,
					0,
					0,
					1
				],
				"metallicFactor":0,
				"roughnessFactor":0.5
			}
		},
		{
			"doubleSided":true,
			"name":"ColorBaseRojo",
			"pbrMetallicRoughness":{
				"baseColorFactor":[
					0.8001810312271118,
					0.007204755675047636,
					0,
					1
				],
				"metallicFactor":0,
				"roughnessFactor":0.5
			}
		}
	],
	"meshes":[
		{
			"name":"Sphere",
			"primitives":[
				{
					"attributes":{
						"POSITION":0,
						"NORMAL":1,
						"TEXCOORD_0":2
					},
					"indices":3,
					"material":0
				},
				{
					"attributes":{
						"POSITION":4,
						"NORMAL":5,
						"TEXCOORD_0":6
					},
					"indices":7,
					"material":1
				}
			]
		}
	],
	"accessors":[
		{
			"bufferView":0,
			"componentType":5126,
			"count":80,
			"max":[
				0.5630048513412476,
				0.6714820861816406,
				0.932494044303894
			],
			"min":[
				-0.5561553835868835,
				0.2331666797399521,
				0.71250319480896
			],
			"type":"VEC3"
		},
		{
			"bufferView":1,
			"componentType":5126,
			"count":80,
			"type":"VEC3"
		},
		{
			"bufferView":2,
			"componentType":5126,
			"count":80,
			"type":"VEC2"
		},
		{
			"bufferView":3,
			"componentType":5123,
			"count":456,
			"type":"SCALAR"
		},
		{
			"bufferView":4,
			"componentType":5126,
			"count":559,
			"max":[
				1.003853678703308,
				1.0411206483840942,
				0.9999994039535522
			],
			"min":[
				-0.9961450695991516,
				-0.33823269605636597,
				-0.9999999403953552
			],
			"type":"VEC3"
		},
		{
			"bufferView":5,
			"componentType":5126,
			"count":559,
			"type":"VEC3"
		},
		{
			"bufferView":6,
			"componentType":5126,
			"count":559,
			"type":"VEC2"
		},
		{
			"bufferView":7,
			"componentType":5123,
			"count":2880,
			"type":"SCALAR"
		}
	],
	"bufferViews":[
		{
			"buffer":0,
			"byteLength":960,
			"byteOffset":0,
			"target":34962
		},
		{
			"buffer":0,
			"byteLength":960,
			"byteOffset":960,
			"target":34962
		},
		{
			"buffer":0,
			"byteLength":640,
			"byteOffset":1920,
			"target":34962
		},
		{
			"buffer":0,
			"byteLength":912,
			"byteOffset":2560,
			"target":34963
		},
		{
			"buffer":0,
			"byteLength":6708,
			"byteOffset":3472,
			"target":34962
		},
		{
			"buffer":0,
			"byteLength":6708,
			"byteOffset":10180,
			"target":34962
		},
		{
			"buffer":0,
			"byteLength":4472,
			"byteOffset":16888,
			"target":34962
		},
		{
			"buffer":0,
			"byteLength":5760,
			"byteOffset":21360,
			"target":34963
		}
	],
	"buffers":[
		{
			"byteLength":27120,
			"uri":"Slime.bin"
		}
	]
}
